<svg width="40" height="40" viewBox="0 0 40 40" xmlns="http://www.w3.org/2000/svg">
<g id="Settings">
<path id="Vector" d="M34.4021 17.5625C34.3959 17.5073 34.3898 17.4612 34.3806 17.4336V17.409L34.3683 17.3415C34.1504 16.2796 33.4475 15.5951 32.5728 15.5951H32.4286C30.9369 15.5951 29.7277 14.3797 29.7277 12.8943C29.7277 12.5505 29.8873 12.0625 29.9548 11.8906C30.3783 10.9023 29.9272 9.77595 28.8806 9.20201L25.5873 7.33901L25.5259 7.31752C25.2804 7.23772 24.995 7.14258 24.6758 7.14258C24.0804 7.14258 23.4113 7.41881 22.9969 7.83315C22.4782 8.3457 21.4255 9.10993 20.7994 9.10993C20.1763 9.10993 19.1205 8.34877 18.6018 7.83315C18.1599 7.39732 17.5491 7.14258 16.923 7.14258C16.5946 7.14258 16.3184 7.23465 16.0728 7.31752L16.0176 7.33901L12.5647 9.20815L12.5432 9.22042C11.7054 9.74526 11.3647 10.9484 11.7913 11.9029L11.7974 11.9152L11.8036 11.9275C11.8711 12.0778 12.0798 12.5873 12.0798 13.0324C12.0798 14.524 10.8644 15.7333 9.37891 15.7333H9.23465C8.32003 15.7333 7.6356 16.4085 7.43917 17.4919L7.4269 17.5533V17.5748C7.4269 17.6055 7.41462 17.6484 7.40541 17.7037C7.32868 18.1671 7.14453 19.2598 7.14453 20.1529C7.14453 21.046 7.32561 22.1387 7.40541 22.6021C7.41155 22.6574 7.41769 22.7034 7.4269 22.731V22.7556L7.43917 22.8231C7.65709 23.885 8.35993 24.5695 9.23465 24.5695H9.30832C10.7999 24.5695 12.0092 25.7849 12.0092 27.2704C12.0092 27.6141 11.8496 28.1021 11.7821 28.274C11.3739 29.204 11.7606 30.3979 12.6629 30.9994L12.6875 31.0117L15.9408 32.8225L16.0022 32.844C16.2478 32.9238 16.5271 33.019 16.8463 33.019C17.5276 33.019 18.1415 32.7581 18.5251 32.3284C18.5619 32.3008 18.5988 32.2639 18.6417 32.2271C19.0346 31.8834 20.0904 30.9749 20.7871 30.9749C21.3058 30.9749 22.1744 31.5181 23.0491 32.3929C23.4911 32.8287 24.1018 33.0834 24.728 33.0834C25.1515 33.0834 25.4646 32.9668 25.8206 32.7919L25.8329 32.7857L29.1691 30.9411L29.1814 30.9288C30.0193 30.404 30.3599 29.2009 29.9333 28.2464L29.9272 28.2341L29.921 28.2218C29.9149 28.2187 29.654 27.6755 29.7031 27.1875L29.7093 27.1568V27.1261C29.7093 25.6345 30.9247 24.4252 32.4102 24.4252H32.5636C33.4782 24.4252 34.1627 23.75 34.3591 22.6666L34.3714 22.6052V22.5837C34.3775 22.5592 34.3837 22.5223 34.3929 22.4732C34.4727 22.022 34.6568 20.9693 34.6568 20.0056C34.6629 19.1155 34.4819 18.0259 34.4021 17.5625ZM20.8976 24.3884C18.5374 24.3884 16.6253 22.4763 16.6253 20.1161C16.6253 17.7559 18.5374 15.8438 20.8976 15.8438C23.2578 15.8438 25.1699 17.7559 25.1699 20.1161C25.1699 22.4763 23.2578 24.3884 20.8976 24.3884Z" />
</g>
</svg>
