<svg width="40" height="40" viewBox="0 0 40 40" xmlns="http://www.w3.org/2000/svg">
<g id="Subtract">
<path id="Subtract_2" fill-rule="evenodd" clip-rule="evenodd" d="M7.14453 29.7252C7.14453 24.75 11.5922 20.7057 17.06 20.7057H22.9433C28.4112 20.7057 32.8588 24.7527 32.8588 29.7252V30.2613C32.8588 32.8616 28.2648 32.8616 22.9433 32.8616H17.06C11.5212 32.8616 7.14453 32.8616 7.14453 30.2613V29.7252ZM27.5595 12.8682C27.5595 16.8105 24.0379 20.0159 19.7074 20.0162C15.377 20.0159 11.8539 16.8091 11.8539 12.8682C11.8539 8.92568 15.3774 5.71875 19.7082 5.71875C24.0375 5.71875 27.5595 8.92568 27.5595 12.8682ZM19.7074 20.0162C19.7072 20.0162 19.7069 20.0162 19.7067 20.0162H19.7082C19.7079 20.0162 19.7077 20.0162 19.7074 20.0162ZM22.8231 27.1484C22.2708 27.1484 21.8231 27.5962 21.8231 28.1484V28.2913C21.8231 28.8436 22.2708 29.2913 22.8231 29.2913H27.966C28.5183 29.2913 28.966 28.8436 28.966 28.2913V28.1484C28.966 27.5962 28.5183 27.1484 27.966 27.1484H22.8231Z" />
</g>
</svg>
