<svg width="40" height="40" viewBox="0 0 40 40" xmlns="http://www.w3.org/2000/svg">
<g id="Transactions_icon">
<path id="Vector" d="M33.8917 12.3787V14.0633H5.32031V12.3787C5.32031 11.1166 6.2846 10.084 7.46317 10.084H31.7489C32.9275 10.084 33.8917 11.1166 33.8917 12.3787ZM5.32031 16.0922V27.7893C5.32031 29.0514 6.2846 30.084 7.46317 30.084H31.7489C32.9275 30.084 33.8917 29.0514 33.8917 27.7893V16.0922H5.32031ZM31.1596 26.9537C30.9882 27.1372 30.7525 27.252 30.4917 27.252H25.0096C24.49 27.252 24.0632 26.795 24.0632 26.2385C24.0632 25.9593 24.1703 25.705 24.3417 25.5214C24.5132 25.3378 24.7489 25.2231 25.0096 25.2231H30.4917C31.0132 25.2231 31.4382 25.6801 31.4382 26.2385C31.4382 26.5177 31.331 26.7701 31.1596 26.9537Z" />
</g>
</svg>
