<svg width="17" height="19" viewBox="0 0 17 19" xmlns="http://www.w3.org/2000/svg">
<g id="copy">
<g id="copy_2">
<path id="Vector" d="M1.18493 3.62109H11.8493C12.1635 3.62109 12.4649 3.76537 12.6872 4.02219C12.9094 4.27901 13.0342 4.62732 13.0342 4.99052V17.3153C13.0342 17.6785 12.9094 18.0268 12.6872 18.2837C12.4649 18.5405 12.1635 18.6847 11.8493 18.6847H1.18493C0.870666 18.6847 0.569274 18.5405 0.347057 18.2837C0.12484 18.0268 0 17.6785 0 17.3153V4.99052C0 4.62732 0.12484 4.27901 0.347057 4.02219C0.569274 3.76537 0.870666 3.62109 1.18493 3.62109Z"/>
<path id="Vector_2" d="M15.2805 0C15.6079 0 15.9218 0.144278 16.1533 0.401095C16.3848 0.657911 16.5148 1.00623 16.5148 1.36942V13.6942C16.5148 14.0574 16.3848 14.4057 16.1533 14.6626C15.9218 14.9194 15.6079 15.0637 15.2805 15.0637H14.0462V4.10827C14.0463 3.76278 13.9287 3.43002 13.717 3.17669C13.5052 2.92336 13.215 2.76818 12.9045 2.74227L12.8119 2.73885H2.9375V1.36942C2.9375 1.00623 3.06754 0.657911 3.29902 0.401095C3.53049 0.144278 3.84444 0 4.1718 0H15.2805Z"/>
</g>
<rect id="Rectangle 1818" x="2.17188" y="7.81641" width="8.14638" height="1.08618" rx="0.543092" fill="#12151C"/>
<rect id="Rectangle 1819" x="2.16797" y="10.5352" width="8.14638" height="1.08618" rx="0.543092" fill="#12151C"/>
<rect id="Rectangle 1820" x="2.17188" y="13.2539" width="4.88783" height="1.08618" rx="0.543092" fill="#12151C"/>
</g>
</svg>
