<svg width="20" height="20" viewBox="0 0 20 20" xmlns="http://www.w3.org/2000/svg">
<g id="edit">
<path id="Vector" d="M4.57254 14.7146C4.85826 14.7146 5.14397 14.5717 5.42969 14.4288H5.57255L2.7154 11.5717V11.7146C2.57254 12.0003 2.42969 12.286 2.42969 12.5717L1.42969 15.7146L4.57254 14.7146ZM14.5725 3.28599L13.7154 2.28599C13.144 1.71456 12.4297 1.71456 11.8583 2.28599L11.0011 3.28599L13.7154 6.00028L14.5725 5.14314C15.144 4.57171 15.144 3.71456 14.5725 3.28599ZM12.8583 6.85742L10.144 4.14314L3.7154 10.5717L6.42969 13.286L12.8583 6.85742Z" />
<path id="Vector_2" d="M0 17.1426H20V18.5711H0V17.1426Z" />
</g>
</svg>
