<svg t="1684826549531" class="icon" viewBox="0 0 1024 1024" version="1.1" xmlns="http://www.w3.org/2000/svg" p-id="2095" width="200" height="200"><path d="M929.88 304.59H227.91v471.54h194.04c8.27 37.54 41.68 65.64 81.71 65.64h12.52c40.02 0 73.44-28.1 81.71-65.64h331.99V304.59z" fill="#9CD5E4" p-id="2096"></path><path d="M519.48 868.24h-11.39c-45.49 0-83.91-30.84-95.47-72.71H68.24v-645.2h289.54c65.08 0 122.21 34.63 153.95 86.42 31.74-51.79 88.87-86.42 153.95-86.42h293.66v645.2h-344.4c-11.59 41.92-49.99 72.71-95.46 72.71zM121.16 742.61h340.83v26.46c0 25.56 20.68 46.24 46.1 46.24h11.39c25.42 0 46.1-20.69 46.1-46.11v-26.46l26.46-0.13H906.4V203.26H665.68c-70.3 0-127.49 57.19-127.49 127.49h-52.93c0-70.3-57.19-127.49-127.49-127.49H121.16v539.35z" fill="#233649" p-id="2097"></path><path d="M485.26 330.75h52.93V591.6h-52.93zM227.91 351.32h171.05v52.93H227.91zM227.91 539.48h171.05v52.93H227.91zM625.61 351.32h171.06v52.93H625.61zM625.61 539.48h171.06v52.93H625.61z" p-id="2098"></path></svg>