<svg width="45" height="45" viewBox="0 0 45 45" fill="none" xmlns="http://www.w3.org/2000/svg">
<g filter="url(#filter0_ddi_2404_13668)">
<path d="M24.1308 9.47364C24.3602 9.64105 24.5598 9.84698 24.7208 10.0825L28.1767 15.1372C28.3461 15.3851 28.5978 15.563 28.8858 15.6385L34.3506 17.0721C34.7431 17.175 35.1047 17.3738 35.4039 17.6511C35.7031 17.9285 35.9307 18.2759 36.0668 18.663C36.2029 19.0501 36.2435 19.4651 36.1848 19.8718C36.1262 20.2785 35.9702 20.6644 35.7305 20.9958L32.068 26.0581C31.9089 26.278 31.8247 26.5445 31.8279 26.8173L31.8962 32.4117C31.9011 32.8092 31.8129 33.2023 31.639 33.5587C31.4651 33.915 31.2104 34.2245 30.8957 34.4618C30.581 34.6991 30.2153 34.8574 29.8287 34.9237C29.442 34.99 29.0453 34.9625 28.6712 34.8434L23.086 33.0652C22.847 32.989 22.5909 32.9879 22.3514 33.0621L16.4535 34.89C16.0824 35.005 15.69 35.0303 15.3075 34.9637C14.9251 34.8971 14.5634 34.7406 14.2515 34.5066C13.9396 34.2726 13.6861 33.9678 13.5115 33.6165C13.3368 33.2653 13.2458 32.8774 13.2458 32.484V26.7789C13.2459 26.5299 13.1732 26.2865 13.0367 26.0794L9.62991 20.9172C9.41076 20.585 9.27279 20.2048 9.22743 19.8078C9.18207 19.4109 9.23061 19.0087 9.36905 18.6346C9.50748 18.2604 9.73183 17.9251 10.0235 17.6563C10.3152 17.3876 10.6658 17.1931 11.0464 17.089L16.3555 15.6379C16.631 15.5624 16.8725 15.3929 17.0392 15.158L20.6669 10.0467C21.0513 9.505 21.6322 9.14032 22.2818 9.03285C22.9314 8.92539 23.5965 9.08395 24.1308 9.47364ZM26.7863 23.3055C25.8196 24.4151 24.5136 24.9661 22.772 24.9661C21.0143 24.9661 19.6227 24.4013 18.5202 23.2583C18.289 23.0249 17.9765 22.8931 17.6502 22.8916C17.324 22.89 17.0102 23.0188 16.7769 23.25C16.5436 23.4812 16.4095 23.7963 16.4037 24.127C16.3979 24.4578 16.5207 24.7775 16.7457 25.0171C18.3266 26.6563 20.361 27.4828 22.7726 27.4828C25.201 27.4828 27.1902 26.6424 28.6463 24.9699C28.8574 24.7188 28.9628 24.3937 28.9397 24.0646C28.9166 23.7355 28.7669 23.4288 28.5229 23.2105C28.2789 22.9922 27.96 22.8799 27.6351 22.8977C27.3101 22.9154 27.0051 23.0619 26.7856 23.3055H26.7863Z" fill="#98ABD0"/>
</g>
<defs>
<filter id="filter0_ddi_2404_13668" x="1.22227" y="1.01133" width="42.9773" height="41.9773" filterUnits="userSpaceOnUse" color-interpolation-filters="sRGB">
<feFlood flood-opacity="0" result="BackgroundImageFix"/>
<feColorMatrix in="SourceAlpha" type="matrix" values="0 0 0 0 0 0 0 0 0 0 0 0 0 0 0 0 0 0 127 0" result="hardAlpha"/>
<feOffset/>
<feGaussianBlur stdDeviation="3.99433"/>
<feComposite in2="hardAlpha" operator="out"/>
<feColorMatrix type="matrix" values="0 0 0 0 1 0 0 0 0 0.498039 0 0 0 0 0.219608 0 0 0 0.01 0"/>
<feBlend mode="normal" in2="BackgroundImageFix" result="effect1_dropShadow_2404_13668"/>
<feColorMatrix in="SourceAlpha" type="matrix" values="0 0 0 0 0 0 0 0 0 0 0 0 0 0 0 0 0 0 127 0" result="hardAlpha"/>
<feOffset/>
<feGaussianBlur stdDeviation="1.99717"/>
<feComposite in2="hardAlpha" operator="out"/>
<feColorMatrix type="matrix" values="0 0 0 0 1 0 0 0 0 0.498039 0 0 0 0 0.219608 0 0 0 0.01 0"/>
<feBlend mode="normal" in2="effect1_dropShadow_2404_13668" result="effect2_dropShadow_2404_13668"/>
<feBlend mode="normal" in="SourceGraphic" in2="effect2_dropShadow_2404_13668" result="shape"/>
<feColorMatrix in="SourceAlpha" type="matrix" values="0 0 0 0 0 0 0 0 0 0 0 0 0 0 0 0 0 0 127 0" result="hardAlpha"/>
<feOffset/>
<feGaussianBlur stdDeviation="4.39377"/>
<feComposite in2="hardAlpha" operator="arithmetic" k2="-1" k3="1"/>
<feColorMatrix type="matrix" values="0 0 0 0 1 0 0 0 0 0.99555 0 0 0 0 0.568333 0 0 0 0.01 0"/>
<feBlend mode="normal" in2="shape" result="effect3_innerShadow_2404_13668"/>
</filter>
</defs>
</svg>
