<svg width="44" height="45" viewBox="0 0 44 45" fill="none" xmlns="http://www.w3.org/2000/svg">
<g filter="url(#filter0_ddi_2404_13541)">
<path d="M23.5488 9.47364C23.7782 9.64105 23.9778 9.84698 24.1388 10.0825L27.5946 15.1372C27.7641 15.3851 28.0158 15.563 28.3038 15.6385L33.7686 17.0721C34.1611 17.175 34.5227 17.3738 34.8219 17.6511C35.121 17.9285 35.3486 18.2759 35.4848 18.663C35.6209 19.0501 35.6614 19.4651 35.6028 19.8718C35.5442 20.2785 35.3882 20.6644 35.1485 20.9958L31.486 26.0581C31.3269 26.278 31.2426 26.5445 31.2459 26.8173L31.3142 32.4117C31.319 32.8092 31.2309 33.2023 31.057 33.5587C30.8831 33.915 30.6283 34.2245 30.3137 34.4618C29.999 34.6991 29.6333 34.8574 29.2466 34.9237C28.86 34.99 28.4633 34.9625 28.0891 34.8434L22.5039 33.0652C22.265 32.989 22.0089 32.9879 21.7693 33.0621L15.8715 34.89C15.5004 35.005 15.1079 35.0303 14.7255 34.9637C14.3431 34.8971 13.9814 34.7406 13.6695 34.5066C13.3576 34.2726 13.1041 33.9678 12.9294 33.6165C12.7548 33.2653 12.6638 32.8774 12.6638 32.484V26.7789C12.6639 26.5299 12.5911 26.2865 12.4547 26.0794L9.04788 20.9172C8.82873 20.585 8.69076 20.2048 8.6454 19.8078C8.60003 19.4109 8.64858 19.0087 8.78702 18.6346C8.92545 18.2604 9.1498 17.9251 9.44148 17.6563C9.73316 17.3876 10.0838 17.1931 10.4643 17.089L15.7734 15.6379C16.049 15.5624 16.2905 15.3929 16.4571 15.158L20.0849 10.0467C20.4692 9.505 21.0501 9.14032 21.6997 9.03285C22.3494 8.92539 23.0145 9.08395 23.5488 9.47364ZM26.2042 23.3055C25.2376 24.4151 23.9316 24.9661 22.19 24.9661C20.4323 24.9661 19.0407 24.4013 17.9381 23.2583C17.707 23.0249 17.3945 22.8931 17.0682 22.8916C16.7419 22.89 16.4282 23.0188 16.1949 23.25C15.9616 23.4812 15.8275 23.7963 15.8217 24.127C15.8158 24.4578 15.9387 24.7775 16.1637 25.0171C17.7446 26.6563 19.779 27.4828 22.1906 27.4828C24.619 27.4828 26.6081 26.6424 28.0643 24.9699C28.2754 24.7188 28.3807 24.3937 28.3577 24.0646C28.3346 23.7355 28.1849 23.4288 27.9409 23.2105C27.6968 22.9922 27.378 22.8799 27.0531 22.8977C26.7281 22.9154 26.4231 23.0619 26.2036 23.3055H26.2042Z" fill="white"/>
</g>
<defs>
<filter id="filter0_ddi_2404_13541" x="0.640236" y="1.01133" width="42.9773" height="41.9773" filterUnits="userSpaceOnUse" color-interpolation-filters="sRGB">
<feFlood flood-opacity="0" result="BackgroundImageFix"/>
<feColorMatrix in="SourceAlpha" type="matrix" values="0 0 0 0 0 0 0 0 0 0 0 0 0 0 0 0 0 0 127 0" result="hardAlpha"/>
<feOffset/>
<feGaussianBlur stdDeviation="3.99433"/>
<feComposite in2="hardAlpha" operator="out"/>
<feColorMatrix type="matrix" values="0 0 0 0 1 0 0 0 0 0.498039 0 0 0 0 0.219608 0 0 0 0.01 0"/>
<feBlend mode="normal" in2="BackgroundImageFix" result="effect1_dropShadow_2404_13541"/>
<feColorMatrix in="SourceAlpha" type="matrix" values="0 0 0 0 0 0 0 0 0 0 0 0 0 0 0 0 0 0 127 0" result="hardAlpha"/>
<feOffset/>
<feGaussianBlur stdDeviation="1.99717"/>
<feComposite in2="hardAlpha" operator="out"/>
<feColorMatrix type="matrix" values="0 0 0 0 1 0 0 0 0 0.498039 0 0 0 0 0.219608 0 0 0 0.01 0"/>
<feBlend mode="normal" in2="effect1_dropShadow_2404_13541" result="effect2_dropShadow_2404_13541"/>
<feBlend mode="normal" in="SourceGraphic" in2="effect2_dropShadow_2404_13541" result="shape"/>
<feColorMatrix in="SourceAlpha" type="matrix" values="0 0 0 0 0 0 0 0 0 0 0 0 0 0 0 0 0 0 127 0" result="hardAlpha"/>
<feOffset/>
<feGaussianBlur stdDeviation="4.39377"/>
<feComposite in2="hardAlpha" operator="arithmetic" k2="-1" k3="1"/>
<feColorMatrix type="matrix" values="0 0 0 0 1 0 0 0 0 0.99555 0 0 0 0 0.568333 0 0 0 0.01 0"/>
<feBlend mode="normal" in2="shape" result="effect3_innerShadow_2404_13541"/>
</filter>
</defs>
</svg>
