<svg width="45" height="45" viewBox="0 0 45 45" fill="none" xmlns="http://www.w3.org/2000/svg">
<g id="Esportes_selected_icon">
<g id="Group 6715">
<circle id="Ellipse 464" cx="22.6055" cy="22.5" r="13.3" stroke="white" stroke-width="0.6"/>
<path id="Subtract" fill-rule="evenodd" clip-rule="evenodd" d="M22.9036 17.3536L22.8978 12.8472L26.6007 10.125C29.4343 11.0391 31.8429 12.8995 33.4541 15.3339L32.1049 19.9737L27.8731 20.9642L22.9036 17.3536ZM22.3036 17.355L22.2978 12.836L18.6103 10.1251C15.8808 11.0057 13.5457 12.7644 11.9378 15.0682L13.3755 20.0124L17.3658 20.9425L22.3036 17.355ZM17.2397 21.5292L13.1785 20.5826L9.61328 22.9487C9.70724 25.7161 10.6662 28.2641 12.2282 30.3308L16.9994 30.4589L19.1026 27.2627L17.2397 21.5292ZM19.6065 27.5884L17.5267 30.7491L18.704 34.9039C19.9356 35.291 21.2463 35.4996 22.6057 35.4996C24.0717 35.4996 25.4811 35.2569 26.7958 34.8095L27.9217 30.8361L25.6015 27.5884H19.6065ZM26.1064 27.263L28.3912 30.4611L32.9777 30.338C34.5745 28.2283 35.5425 25.6162 35.6027 22.7807L32.2504 20.5559L27.9593 21.5602L26.1064 27.263Z" fill="white"/>
</g>
</g>
</svg>
