<svg width="44" height="45" viewBox="0 0 44 45" fill="none" xmlns="http://www.w3.org/2000/svg">
<path d="M20.0015 31.4117C20.0015 30.7002 19.9874 29.9884 20.0085 29.2775C20.0166 29.0127 19.9079 28.8865 19.6954 28.7503C18.5488 28.016 15.645 25.8053 13.9703 24.0941C13.4077 23.5824 12.9364 23.5056 12.3527 24.0041C11.5517 24.6879 8.57752 27.4552 7.7598 27.8268C7.49527 27.9468 6.6561 27.7826 6.94108 26.7331C7.21197 25.7357 8.20504 23.2105 8.22616 22.9104C8.25164 22.5524 6.93068 18.1019 6.97762 17.852C7.04534 17.4919 7.33133 17.2875 7.67531 17.4065C8.09842 17.5529 11.9054 20.8758 12.4184 21.2797C12.9863 21.7271 13.4486 21.7149 13.9344 21.1943C16.8674 18.0508 19.6049 16.5341 19.862 16.3195C19.9535 16.243 19.9948 16.0656 19.9954 15.9337C20.0048 14.5483 20.0005 13.1625 20.0021 11.777C20.0021 11.6402 19.9995 11.5001 20.0266 11.3672C20.1218 10.9039 20.4169 10.7117 20.8601 10.897C21.251 11.0602 21.6279 11.2838 21.9648 11.5393C22.6783 12.0797 23.3766 12.6419 24.0535 13.2258C24.7663 13.8407 25.4379 14.5021 26.1483 15.1197C26.3139 15.2637 26.5577 15.3716 26.7773 15.3966C32.0866 15.3966 37.3724 20.1075 37.3724 22.6335C37.3724 24.5906 34.0566 29.8773 26.6824 29.8773C26.5117 29.8911 26.3243 29.995 26.1909 30.1094C25.3306 30.8466 24.4887 31.605 23.6291 32.3428C23.0102 32.874 22.3789 33.392 21.7402 33.9004C21.5353 34.0633 21.299 34.1958 21.0599 34.3073C20.4185 34.6067 20.0135 34.358 20.0035 33.6591C19.9931 32.91 20.0015 32.1608 20.0015 31.4117ZM32.106 21.0011C31.1559 20.9964 30.4676 21.6605 30.4612 22.5886C30.4542 23.5827 31.1187 24.2662 32.0919 24.2659C33.0545 24.2655 33.7066 23.6035 33.713 22.6206C33.7193 21.6829 33.0475 21.0057 32.106 21.0011Z" fill="white"/>
</svg>
