<svg width="45" height="45" viewBox="0 0 45 45" fill="none" xmlns="http://www.w3.org/2000/svg">
<path d="M20.5835 31.4117C20.5835 30.7002 20.5694 29.9884 20.5905 29.2775C20.5986 29.0127 20.49 28.8865 20.2774 28.7503C19.1308 28.016 16.227 25.8053 14.5524 24.0941C13.9898 23.5824 13.5184 23.5056 12.9347 24.0041C12.1337 24.6879 9.15955 27.4552 8.34183 27.8268C8.07731 27.9468 7.23813 27.7826 7.52311 26.7331C7.794 25.7357 8.78707 23.2105 8.80819 22.9104C8.83367 22.5524 7.51271 18.1019 7.55965 17.852C7.62737 17.4919 7.91336 17.2875 8.25735 17.4065C8.68045 17.5529 12.4874 20.8758 13.0004 21.2797C13.5683 21.7271 14.0307 21.7149 14.5165 21.1943C17.4494 18.0508 20.1869 16.5341 20.444 16.3195C20.5356 16.243 20.5768 16.0656 20.5775 15.9337C20.5869 14.5483 20.5825 13.1625 20.5842 11.777C20.5842 11.6402 20.5815 11.5001 20.6086 11.3672C20.7039 10.9039 20.9989 10.7117 21.4421 10.897C21.8331 11.0602 22.2099 11.2838 22.5468 11.5393C23.2603 12.0797 23.9587 12.6419 24.6356 13.2258C25.3483 13.8407 26.0199 14.5021 26.7303 15.1197C26.8959 15.2637 27.1397 15.3716 27.3593 15.3966C32.6686 15.3966 37.9545 20.1075 37.9545 22.6335C37.9545 24.5906 34.6386 29.8773 27.2644 29.8773C27.0938 29.8911 26.9063 29.995 26.7729 30.1094C25.9126 30.8466 25.0707 31.605 24.2111 32.3428C23.5922 32.874 22.9609 33.392 22.3222 33.9004C22.1174 34.0633 21.881 34.1958 21.6419 34.3073C21.0006 34.6067 20.5956 34.358 20.5855 33.6591C20.5751 32.91 20.5835 32.1608 20.5835 31.4117ZM32.6881 21.0011C31.7379 20.9964 31.0496 21.6605 31.0432 22.5886C31.0362 23.5827 31.7007 24.2662 32.674 24.2659C33.6365 24.2655 34.2886 23.6035 34.295 22.6206C34.3014 21.6829 33.6295 21.0057 32.6881 21.0011Z" fill="#98ABD0"/>
</svg>
