<svg width="40" height="42" viewBox="0 0 40 42" fill="none" xmlns="http://www.w3.org/2000/svg">
<g filter="url(#filter0_d_2404_11864)">
<path d="M4.92434 29.3534C4.79124 29.278 4.70898 29.1368 4.70898 28.9838L4.70898 23.6416C4.70898 23.3152 5.06179 23.1107 5.34506 23.2729L19.7957 31.5489C19.9265 31.6238 20.0872 31.6238 20.218 31.5489L34.6686 23.2729C34.9519 23.1107 35.3047 23.3152 35.3047 23.6416L35.3047 28.9838C35.3047 29.1368 35.2224 29.278 35.0893 29.3534L20.2164 37.7847C20.0864 37.8584 19.9273 37.8584 19.7973 37.7847L4.92434 29.3534Z" fill="#98ABD0"/>
</g>
<path fill-rule="evenodd" clip-rule="evenodd" d="M18.8973 12.9124L5.11185 18.9583C4.62584 19.1715 4.59797 19.8505 5.06487 20.1027L19.7422 28.0331C19.931 28.1351 20.1584 28.1352 20.3473 28.0335L35.0008 20.1436C35.468 19.8921 35.4412 19.2132 34.9557 18.9992L20.8021 12.7627V17.978C20.8021 18.504 20.3757 18.9304 19.8497 18.9304C19.3237 18.9304 18.8973 18.504 18.8973 17.978V12.9124Z" fill="#98ABD0"/>
<circle cx="20.0309" cy="6.66709" r="4.56992" fill="#98ABD0"/>
<defs>
<filter id="filter0_d_2404_11864" x="0.602405" y="19.1114" width="38.8069" height="22.8332" filterUnits="userSpaceOnUse" color-interpolation-filters="sRGB">
<feFlood flood-opacity="0" result="BackgroundImageFix"/>
<feColorMatrix in="SourceAlpha" type="matrix" values="0 0 0 0 0 0 0 0 0 0 0 0 0 0 0 0 0 0 127 0" result="hardAlpha"/>
<feOffset/>
<feGaussianBlur stdDeviation="2.05231"/>
<feComposite in2="hardAlpha" operator="out"/>
<feColorMatrix type="matrix" values="0 0 0 0 0 0 0 0 0 0 0 0 0 0 0 0 0 0 0.1 0"/>
<feBlend mode="normal" in2="BackgroundImageFix" result="effect1_dropShadow_2404_11864"/>
<feBlend mode="normal" in="SourceGraphic" in2="effect1_dropShadow_2404_11864" result="shape"/>
</filter>
</defs>
</svg>
