<svg width="44" height="45" viewBox="0 0 44 45" fill="none" xmlns="http://www.w3.org/2000/svg">
<path fill-rule="evenodd" clip-rule="evenodd" d="M8.97388 16.1681C9.29516 13.9391 11.2052 12.2847 13.4572 12.2847H15.802H18.9362H22.0703H25.2045H28.3387H30.569C32.8702 12.2847 34.8057 14.0101 35.0689 16.2962L36.6136 29.7132C36.8458 31.73 35.2688 33.499 33.2387 33.499H31.7804C30.2616 33.499 28.8064 32.8887 27.7419 31.8053L25.8012 29.8304C23.5823 27.5722 19.943 27.5723 17.7241 29.8304L15.7834 31.8053C14.7189 32.8887 13.2637 33.499 11.7449 33.499H10.3979C8.32877 33.499 6.74022 31.665 7.0354 29.6171L8.97388 16.1681ZM16.4056 17.658C16.8746 17.658 17.2549 18.0383 17.2549 18.5073V20.0417H18.5712C19.0403 20.0417 19.4205 20.422 19.4205 20.891C19.4205 21.3601 19.0403 21.7403 18.5712 21.7403H17.2549V23.1397C17.2549 23.6087 16.8746 23.989 16.4056 23.989C15.9365 23.989 15.5563 23.6087 15.5563 23.1397V21.7403H14.1126C13.6435 21.7403 13.2633 21.3601 13.2633 20.891C13.2633 20.422 13.6435 20.0417 14.1126 20.0417H15.5563V18.5073C15.5563 18.0383 15.9365 17.658 16.4056 17.658ZM30.4182 19.6968C30.4182 20.4278 29.8479 21.0203 29.1443 21.0203C28.4408 21.0203 27.8704 20.4278 27.8704 19.6968C27.8704 18.9659 28.4408 18.3733 29.1443 18.3733C29.8479 18.3733 30.4182 18.9659 30.4182 19.6968ZM26.6013 23.75C27.3049 23.75 27.8752 23.1575 27.8752 22.4265C27.8752 21.6956 27.3049 21.103 26.6013 21.103C25.8978 21.103 25.3274 21.6956 25.3274 22.4265C25.3274 23.1575 25.8978 23.75 26.6013 23.75Z" fill="white"/>
</svg>
