<svg width="45" height="45" viewBox="0 0 45 45" fill="none" xmlns="http://www.w3.org/2000/svg">
<path fill-rule="evenodd" clip-rule="evenodd" d="M9.82935 16.1681C10.1506 13.9391 12.0606 12.2847 14.3126 12.2847H16.6574H19.7916H22.9258H26.06H29.1942H31.4245C33.7257 12.2847 35.6612 14.0101 35.9244 16.2962L37.469 29.7132C37.7012 31.73 36.1243 33.499 34.0941 33.499H32.6359C31.117 33.499 29.6619 32.8887 28.5973 31.8053L26.6567 29.8304C24.4378 27.5722 20.7984 27.5723 18.5795 29.8304L16.6389 31.8053C15.5744 32.8887 14.1192 33.499 12.6003 33.499H11.2533C9.18424 33.499 7.59569 31.665 7.89087 29.6171L9.82935 16.1681ZM17.261 17.658C17.7301 17.658 18.1103 18.0383 18.1103 18.5073V20.0417H19.4267C19.8958 20.0417 20.276 20.422 20.276 20.891C20.276 21.3601 19.8958 21.7403 19.4267 21.7403H18.1103V23.1397C18.1103 23.6087 17.7301 23.989 17.261 23.989C16.792 23.989 16.4117 23.6087 16.4117 23.1397V21.7403H14.9681C14.499 21.7403 14.1188 21.3601 14.1188 20.891C14.1188 20.422 14.499 20.0417 14.9681 20.0417H16.4117V18.5073C16.4117 18.0383 16.792 17.658 17.261 17.658ZM31.2737 19.6968C31.2737 20.4278 30.7033 21.0203 29.9998 21.0203C29.2962 21.0203 28.7259 20.4278 28.7259 19.6968C28.7259 18.9659 29.2962 18.3733 29.9998 18.3733C30.7033 18.3733 31.2737 18.9659 31.2737 19.6968ZM27.4568 23.75C28.1604 23.75 28.7307 23.1575 28.7307 22.4265C28.7307 21.6956 28.1604 21.103 27.4568 21.103C26.7533 21.103 26.1829 21.6956 26.1829 22.4265C26.1829 23.1575 26.7533 23.75 27.4568 23.75Z" fill="#98ABD0"/>
</svg>
