<svg width="45" height="44" viewBox="0 0 45 44" fill="none" xmlns="http://www.w3.org/2000/svg">
<path fill-rule="evenodd" clip-rule="evenodd" d="M24.0684 7.69458C21.6444 8.8258 16.9903 13.4153 17.7659 22.7236C17.1199 22.4004 15.9247 20.6874 16.3125 16.4211C14.8581 17.5523 11.9492 21.2692 11.9492 27.0869C11.9492 34.359 26.4934 42.6007 32.7959 29.0261C34.7352 22.7236 30.3719 17.8755 25.039 13.5123C23.0998 11.573 23.584 8.8258 24.0684 7.69458ZM25.2457 20.5974C27.0233 22.6983 29.512 27.5787 25.2457 30.2936C24.9225 29.6472 24.373 27.9665 24.7609 26.4151C24.1142 28.0311 21.9482 31.3601 18.4576 31.748C20.0736 33.5256 24.4692 36.0143 29.1233 31.748C33.0018 26.4151 29.6081 22.0518 29.1233 21.567C28.8555 21.2992 27.9559 21.016 27.1587 20.8132C26.5344 20.6543 25.89 20.5974 25.2457 20.5974Z" fill="#FFFFFE"/>
</svg>
