<svg width="45" height="45" viewBox="0 0 45 45" fill="none" xmlns="http://www.w3.org/2000/svg">
<path fill-rule="evenodd" clip-rule="evenodd" d="M24.4552 7.83203C22.0311 8.96325 17.377 13.5528 18.1527 22.8611C17.5066 22.5378 16.3114 20.8249 16.6992 16.5586C15.2448 17.6898 12.3359 21.4066 12.3359 27.2243C12.3359 34.4964 26.8802 42.7381 33.1826 29.1635C35.1219 22.8611 30.7586 18.013 25.4257 13.6497C23.4865 11.7105 23.9707 8.96325 24.4552 7.83203ZM25.6324 20.7348C27.41 22.8357 29.8987 27.7161 25.6324 30.431C25.3092 29.7846 24.7598 28.1039 25.1476 26.5525C24.5009 28.1685 22.3349 31.4975 18.8443 31.8854C20.4603 33.663 24.8559 36.1517 29.51 31.8854C33.3885 26.5525 29.9948 22.1893 29.51 21.7044C29.2422 21.4366 28.3427 21.1534 27.5455 20.9506C26.9211 20.7917 26.2767 20.7348 25.6324 20.7348Z" fill="#98ABD0"/>
</svg>
