<?xml version="1.0" standalone="no"?><!DOCTYPE svg PUBLIC "-//W3C//DTD SVG 1.1//EN" "http://www.w3.org/Graphics/SVG/1.1/DTD/svg11.dtd"><svg t="1635845720386" class="icon" viewBox="0 0 1024 1024" version="1.1" xmlns="http://www.w3.org/2000/svg" p-id="8197" xmlns:xlink="http://www.w3.org/1999/xlink" width="200" height="200"><defs><style type="text/css"></style></defs><path d="M427.65977 110.174425l75.785576 0 5.353182-93.624449 5.447418 93.624449 73.135837 0 1.438864 9.695106c14.009672 95.562863 21.223244 191.064928 21.630585 286.51633l64.070993 8.250163-64.070993 8.398102c-0.388088 95.476734-7.620913 191.126739-21.630585 286.750399l-1.438864 9.707266-72.808546 0-5.348116 93.623436-5.447418-93.623436-75.981139 0-1.315243-9.867365c-12.485692-93.709565-18.758936-189.16198-18.906876-286.343058l-64.078086-8.250163 64.120644-8.410261c0.556293-93.89601 6.78698-189.384903 18.82176-286.479852L427.65977 110.174425 427.65977 110.174425zM487.136531 433.555059l-57.012453-7.361512c0.240148 91.821816 6.074641 182.037577 17.44268 270.610803l54.883543 0L487.136531 433.555059 487.136531 433.555059zM430.185888 403.668232l56.902005-7.484119 15.060448-263.336433L447.691392 132.84768C436.689148 224.620858 430.833377 314.872084 430.185888 403.668232L430.185888 403.668232zM530.887117 396.111157l56.857421 7.335167c-0.511709-90.253252-7.168988-180.481172-19.955625-270.598643l-52.215564 0L530.887117 396.111157 530.887117 396.111157zM587.744538 426.021289l-56.81385 7.459801L515.874293 696.805363l51.902459 0C580.56339 606.600749 587.232829 516.323178 587.744538 426.021289z" p-id="8198"></path><path d="M154.258382 1010.09571c0 1.309164 0.384035 2.298129 1.123733 2.939538 0.753884 0.665728 1.710424 0.986939 2.914206 0.986939l12.128002 0c4.199051 0 7.779999-1.38212 10.769188-4.172706 3.007428-2.803758 5.248814-7.162908 6.742395-13.067317l2.241385 0.988966-4.045032 19.228087-46.250358 0 0-2.97703 3.149288 0c1.488515 0 2.544357-0.320198 3.137129-0.986939 0.592771-0.642422 0.901823-1.630375 0.901823-2.939538l0-70.506363c0-1.294978-0.320198-2.283943-0.963634-2.937512-0.62925-0.654582-1.759062-1.000112-3.345865-1.000112l-2.877728 0 0-2.96487 21.557628 0 0 2.96487-3.144222 0c-1.203782 0-2.160323 0.34553-2.914206 1.000112-0.739698 0.654582-1.123733 1.642534-1.123733 2.937512L154.258382 1010.09571 154.258382 1010.09571zM261.88845 935.651723l0-2.96487 35.91891 0 0 2.96487-10.324356 0c-1.203782 0-2.167416 0.34553-2.914206 1.000112-0.746791 0.654582-1.129812 1.642534-1.129812 2.937512l0 70.506363c0 1.309164 0.383022 2.298129 1.129812 2.939538 0.746791 0.665728 1.710424 0.986939 2.914206 0.986939l10.324356 0 0 2.97703-35.91891 0 0-2.97703 10.324356 0c1.494595 0 2.550437-0.320198 3.143209-0.986939 0.592771-0.642422 0.895744-1.630375 0.895744-2.939538l0-70.506363c0-1.294978-0.301959-2.283943-0.895744-2.937512-0.592771-0.654582-1.648614-1.000112-3.143209-1.000112L261.88845 935.651723 261.88845 935.651723zM411.247601 997.263475l0.895744 0 0-57.674128c0-1.294978-0.309052-2.283943-0.895744-2.937512-0.592771-0.654582-1.648614-1.000112-3.149288-1.000112l-3.574868 0 0-2.96487 17.943242 0 0 2.96487-3.581961 0c-1.203782 0-2.160323 0.34553-2.908127 1.000112-0.746791 0.654582-1.130826 1.642534-1.130826 2.937512l0 77.409871-2.703443 0 0.253321 0-34.351358-73.443875-0.901823 0 0 66.541381c0 1.309164 0.382008 2.298129 1.129812 2.939538 0.746791 0.665728 1.704345 0.986939 2.914206 0.986939l3.581961 0 0 2.97703-17.950335 0 0-2.97703 3.581961 0c1.494595 0 2.550437-0.320198 3.137129-0.986939 0.598851-0.642422 0.907903-1.630375 0.907903-2.939538l0-70.506363c0-1.294978-0.34553-2.283943-1.019364-2.937512-0.665728-0.654582-1.857351-1.000112-3.562708-1.000112l-3.043907 0 0-2.96487 14.214355 0L411.247601 997.263475 411.247601 997.263475zM511.731986 1017.98717c-8.391009 0-15.042209-3.445167-19.981971-10.348675-4.939762-6.903507-7.417243-17.758824-7.417243-32.542646 0-12.497851 2.62542-22.847539 7.854982-31.07237 5.247801-8.22483 12.357005-12.323566 21.340785-12.323566 2.092433 0 4.199051 0.418487 6.286417 1.24634 2.104592 0.827853 3.889999 1.222021 5.39574 1.222021 1.192636 0 2.167416-0.173272 2.920286-0.49347 0.746791-0.332357 1.414545-0.988966 2.026569-1.974892l4.025779 21.685302-2.704456 0.987952c-1.778314-6.247912-4.174732-10.991097-7.181147-14.300484-2.988176-3.285068-6.879189-4.915443-11.664931-4.915443-6.304656 0-11.170449 3.778538-14.603456 11.336627-3.446181 7.570249-5.175857 16.930971-5.175857 28.096353 0 12.164481 1.500674 21.710634 4.482771 28.614141 3.014521 6.891348 7.954283 10.348675 14.833472 10.348675 4.791822 0 8.909811-1.900922 12.354978-5.680473 3.451247-3.778538 5.762549-8.766938 6.953158-15.015863l2.704456 1.457103c-1.494595 6.903507-4.273021 12.58398-8.318053 17.016087C521.82734 1015.777196 517.11658 1017.98717 511.731986 1017.98717L511.731986 1017.98717zM608.116623 974.59022c0 14.139372 1.573631 24.390772 4.709746 30.812969 3.144222 6.409025 7.109204 9.60695 11.919266 9.60695 5.075542 0 9.119561-3.037827 12.126989-9.126654 2.988176-6.076667 4.482771-16.511471 4.482771-31.294279 0-11.817937-1.264579-21.365104-3.815016-28.590836-2.546384-7.224719-6.818392-10.842144-12.794744-10.842144-5.100874 0-9.139826 3.285068-12.146241 9.855205C609.611217 951.582582 608.116623 961.449947 608.116623 974.59022L608.116623 974.59022zM649.877117 974.59022c0 13.473644-2.389325 24.082733-7.181147 31.799908-4.791822 7.731361-10.769188 11.597041-17.950335 11.597041-6.898441 0-12.801837-3.964982-17.741599-11.843269-4.939762-7.892473-7.415216-18.401247-7.415216-31.554693 0-12.806903 2.315355-23.156591 6.958225-31.035891 4.63071-7.903619 10.707377-11.854416 18.19859-11.854416 7.773919 0 13.905303 4.199051 18.388074 12.58398C647.635732 952.657677 649.877117 962.772283 649.877117 974.59022L649.877117 974.59022zM728.335738 1010.09571c0 1.309164 0.377955 2.298129 1.124746 2.939538 0.75287 0.665728 1.710424 0.986939 2.913193 0.986939l12.128002 0c4.192971 0 7.773919-1.38212 10.769188-4.172706 3.007428-2.803758 5.248814-7.162908 6.742395-13.067317l2.241385 0.988966-4.044019 19.228087-46.250358 0 0-2.97703 3.144222 0c1.494595 0 2.550437-0.320198 3.143209-0.986939 0.598851-0.642422 0.901823-1.630375 0.901823-2.939538l0-70.506363c0-1.294978-0.327291-2.283943-0.956541-2.937512-0.630263-0.654582-1.760075-1.000112-3.353972-1.000112l-2.877728 0 0-2.96487 21.556615 0 0 2.96487-3.144222 0c-1.203782 0-2.160323 0.34553-2.913193 1.000112-0.746791 0.654582-1.124746 1.642534-1.124746 2.937512L728.335738 1010.09571 728.335738 1010.09571zM870.501582 997.263475l0.901823 0 0-57.674128c0-1.294978-0.302972-2.283943-0.901823-2.937512-0.592771-0.654582-1.642534-1.000112-3.137129-1.000112l-3.581961 0 0-2.96487 17.952362 0 0 2.96487-3.580947 0c-1.209862 0-2.168429 0.34553-2.916233 1.000112-0.746791 0.654582-1.129812 1.642534-1.129812 2.937512l0 77.409871-2.704456 0 0.253321 0-34.351358-73.443875-0.901823 0 0 66.541381c0 1.309164 0.384035 2.298129 1.130826 2.939538 0.746791 0.665728 1.710424 0.986939 2.914206 0.986939l3.580947 0 0 2.97703-17.950335 0 0-2.97703 3.580947 0c1.494595 0 2.550437-0.320198 3.137129-0.986939 0.599864-0.642422 0.907903-1.630375 0.907903-2.939538l0-70.506363c0-1.294978-0.344517-2.283943-1.018351-2.937512-0.666741-0.654582-1.858364-1.000112-3.556629-1.000112l-3.051 0 0-2.96487 14.214355 0L870.501582 997.263475z" p-id="8199"></path></svg>