<svg width="45" height="44" viewBox="0 0 45 44" fill="none" xmlns="http://www.w3.org/2000/svg">
<path fill-rule="evenodd" clip-rule="evenodd" d="M23.4795 10.4212C22.8676 9.8596 21.9277 9.8596 21.3158 10.4212L13.4473 17.6425C13.3659 17.7172 13.2947 17.7966 13.2332 17.8794L10.8164 20.3926H10.85C10.5682 20.681 10.3945 21.0755 10.3945 21.5106V33.0397C10.3945 33.9234 11.1109 34.6397 11.9945 34.6397H19.1797V25.9018C19.1797 25.725 19.323 25.5818 19.4997 25.5818H25.2909C25.4677 25.5818 25.6109 25.725 25.6109 25.9018V34.6397H32.7945C33.6782 34.6397 34.3945 33.9234 34.3945 33.0397V21.5106C34.3945 21.0698 34.2163 20.6706 33.9279 20.3813L31.4989 17.7995C31.4606 17.7542 31.4192 17.7101 31.3746 17.6674L31.3614 17.6534L31.3598 17.6534L31.348 17.6425L23.4795 10.4212Z" fill="white"/>
</svg>
