<svg width="44" height="44" viewBox="0 0 44 44" fill="none" xmlns="http://www.w3.org/2000/svg">
<path fill-rule="evenodd" clip-rule="evenodd" d="M23.0831 10.1014C22.4712 9.53978 21.5313 9.53978 20.9194 10.1014L13.0509 17.3227C12.9641 17.4023 12.8889 17.4872 12.8248 17.5759L10.4238 20.0728H10.4555C10.1737 20.3612 10 20.7557 10 21.1908V32.7199C10 33.6036 10.7163 34.3199 11.6 34.3199H18.7863V25.5822C18.7863 25.4055 18.9295 25.2622 19.1062 25.2622H24.8975C25.0742 25.2622 25.2175 25.4055 25.2175 25.5822V34.3199H32.4C33.2837 34.3199 34 33.6036 34 32.7199V21.1908C34 20.7557 33.8263 20.3612 33.5445 20.0728H33.5459L30.9688 17.3336L30.9634 17.3336L30.9516 17.3227L23.0831 10.1014Z" fill="#98ABD0"/>
</svg>
