<svg width="278" height="56" fill="none" xmlns="http://www.w3.org/2000/svg"><g filter="url(#a)" fill="#fff"><path d="M230.292 19.301v4.312h-6.468v-10.24h18.326v5.39l-3.44 9.404 4.518-2.398-5.302 4.54-3.861 10.552h-7.007l1.617-4.008 9.251-6.544.182-.497.602-1.645-7.34 1.914 1.078-2.695 1.078-2.695 2.156-5.39h-5.39zM208.734 19.301v4.312h-6.468v-10.24h18.326v5.39l-.897 2.451 3.053-1.374-3.59 2.843-6.651 18.178H205.5l2.156-5.39 1.078-2.695 1.078-2.695 9.346-7.398.537-1.469-7.727 3.477 2.156-5.39h-5.39zM251.851 19.301v4.312h-6.468v-10.24h18.326v5.39l-5.165 14.118 6.782-2.26-7.677 4.704-2.025 5.536h-7.007l9.032-5.536.895-2.444-7.771 2.59 1.078-2.695 1.078-2.695 1.078-2.695 1.078-2.695 2.156-5.39h-5.39z"/></g><path d="M72.009 28.552c1.492.358 2.576 1.099 3.253 2.221.705 1.1.948 2.377.73 3.834-.334 2.221-1.34 3.941-3.02 5.16-1.653 1.193-3.868 1.79-6.645 1.79h-13.44l3.804-25.365h13.078c2.608 0 4.577.561 5.906 1.684 1.33 1.122 1.833 2.758 1.51 4.908-.222 1.48-.809 2.735-1.76 3.762-.923 1.003-2.062 1.672-3.416 2.006zM63.25 26.08h3.116c.724 0 1.277-.143 1.658-.43.406-.287.653-.728.743-1.325.093-.622-.02-1.075-.34-1.362-.291-.31-.8-.466-1.524-.466h-3.115l-.538 3.583zm2.294 9.1c.725 0 1.276-.131 1.654-.394.405-.287.654-.74.747-1.361.183-1.218-.438-1.827-1.863-1.827h-3.66l-.537 3.582h3.66zm23.23-18.988L84.97 41.557h-8.043l3.804-25.365h8.043zm17.331 8.67c-.239-.502-.629-.884-1.169-1.146-.537-.287-1.215-.43-2.037-.43-1.545 0-2.816.501-3.812 1.504-.992.98-1.617 2.33-1.875 4.049-.297 1.982-.049 3.463.746 4.442.796.98 2.171 1.47 4.127 1.47 1.86 0 3.469-.741 4.826-2.222h-6.412l.843-5.625h13.079l-1.193 7.954c-1.394 1.887-3.172 3.51-5.332 4.872-2.157 1.338-4.733 2.007-7.728 2.007-2.657 0-4.895-.538-6.714-1.613-1.791-1.098-3.072-2.627-3.84-4.586-.745-1.958-.93-4.191-.553-6.7.376-2.507 1.23-4.74 2.562-6.699a13.896 13.896 0 0 1 5.211-4.55c2.121-1.099 4.498-1.648 7.131-1.648 3.357 0 5.966.8 7.827 2.4 1.886 1.6 2.816 3.774 2.79 6.521h-8.477zm49.047-8.67-9.673 25.365h-9.999l-.811-14.402-5.131 14.402h-9.999l-2.064-25.365h8.658l-.078 15.979 5.875-15.98h8.767l1.081 15.98 4.715-15.98h8.659zm10.202 0-3.804 25.365h-8.043l3.805-25.365h8.042zm23.703 25.365h-8.043l-6.601-12.754-1.913 12.754h-8.042l3.804-25.365h8.043l6.568 12.97 1.945-12.97h8.043l-3.804 25.365z" fill="#fff"/><path fill-rule="evenodd" clip-rule="evenodd" d="M10.966 12.861a4.93 4.93 0 1 1 0-9.861 4.93 4.93 0 0 1 0 9.861zm.015-1.23a3.277 3.277 0 1 1 0-6.553 3.277 3.277 0 0 1 0 6.554z" fill="url(#b)"/><path fill-rule="evenodd" clip-rule="evenodd" d="M34.786 12.861a4.93 4.93 0 1 0 0-9.86 4.93 4.93 0 0 0 0 9.86zm3.261-4.506a3.277 3.277 0 1 1-6.553 0 3.277 3.277 0 0 1 6.553 0z" fill="url(#c)"/><path d="M40.502 34.52c4.978-5.62 1.381-13.19-1.04-16.273H6.24c-5.38 8.343-2.877 14.577-.882 16.65L20.141 50.13a3.98 3.98 0 0 0 5.72.004c4.326-4.475 10.681-11.143 14.641-15.614z" fill="url(#d)"/><mask id="f" style="mask-type:alpha" maskUnits="userSpaceOnUse" x="3" y="18" width="40" height="34"><path d="M40.502 34.52c4.978-5.62 1.381-13.19-1.04-16.273H6.24c-5.38 8.343-2.877 14.577-.882 16.65L20.66 50.665a3.26 3.26 0 0 0 4.684.005c4.323-4.464 11.038-11.496 15.16-16.15z" fill="url(#e)"/></mask><g mask="url(#f)"><g filter="url(#g)"><path d="M6.915 27.432C4.205 24.9 4.893 19.288 5.575 16.8c5.903-.242 20.98-.725 34.074-.725 2.495 6.188.263 10.15-1.166 11.358L22.605 41.8c-4.102-3.734-12.98-11.834-15.69-14.367z" fill="url(#h)"/></g><g filter="url(#i)"><ellipse cx="22.864" cy="41.23" rx="13.091" ry="11.515" fill="url(#j)"/></g><g filter="url(#k)"><path d="M28.585 42.113c1.16-1.487-.042-3.681-.662-4.506H18.11c-.64.305-1.774 1.434-1.181 3.513.592 2.08 4.28 3.975 6.049 4.663 1.386-.604 4.449-2.183 5.608-3.67z" fill="#751270"/></g></g><path d="M28.389 40.73c.378-1.108-.01-3.391-.252-4.394l-10.381.157c-.384.788-.977 2.738-.284 4.238.61 1.32 3.2 3.573 4.861 4.89a.975.975 0 0 0 1.23-.015c1.763-1.46 4.49-3.89 4.826-4.875z" fill="url(#l)"/><mask id="n" style="mask-type:alpha" maskUnits="userSpaceOnUse" x="17" y="36" width="12" height="10"><path d="M28.389 40.73c.378-1.108-.01-3.392-.252-4.395l-10.381.158c-.384.788-.977 2.738-.284 4.237.61 1.32 3.2 3.574 4.861 4.89a.975.975 0 0 0 1.23-.014c1.763-1.46 4.49-3.89 4.826-4.876z" fill="url(#m)"/></mask><g mask="url(#n)"><g filter="url(#o)"><path d="M32.296 35.243c0 1.905-2.666 3.45-5.955 3.45-3.288 0-5.954-1.545-5.954-3.45 0-1.905 2.666-3.45 5.954-3.45 3.289 0 5.955 1.545 5.955 3.45z" fill="#C83557"/></g><g filter="url(#p)"><ellipse cx="18.982" cy="35.243" rx="5.955" ry="3.45" fill="#C83557"/></g></g><path d="m37.61 26.258-7.454 7.425h-14.76c-1.023-1.068-3.473-3.25-7.626-7.694a4.862 4.862 0 0 1-.621-.796c-2.526-4.18-.372-9.382 1.425-11.926 4.663 0 16.815-.173 28.56-.173 3.794 5.745 2.704 9.59 1.572 11.739-.281.533-.669 1-1.096 1.425z" fill="url(#q)"/><mask id="s" style="mask-type:alpha" maskUnits="userSpaceOnUse" x="6" y="13" width="35" height="21"><path d="m38.625 25.161-8.475 8.522H15.39c-1.025-1.07-3.228-3.14-7.473-7.495a4.165 4.165 0 0 1-.58-.723c-2.57-4.2-.571-9.646 1.231-12.197 4.663 0 16.815-.174 28.56-.174 4.31 6.528 2.862 10.822 1.497 12.067z" fill="url(#r)"/></mask><g mask="url(#s)"><g filter="url(#t)"><path d="M34.59 29.1c1.323-6.44-4.637-10.917-7.782-12.35-.4 0-2.656.116-8.491.582-9.112 5.697-7.368 10.445-6.502 13.122l11.122 23.457c3.14-4.332 10.33-18.371 11.653-24.811z" fill="url(#u)"/></g><g filter="url(#v)"><path d="M18.951 24.644c.49-2.248-.277-4.871-.962-5.42l-1.292-.977h11.405c-1.568 1.094-1.5 3.856-1.31 5.793.074.751.337 1.47.738 2.11l4.133 6.59-8.775 7.703-8.853-7.23c.546-.922 2.573-4.27 4.495-7.557.185-.317.343-.652.421-1.012z" fill="url(#w)"/></g><g opacity=".5" filter="url(#x)"><ellipse cx="22.888" cy="19.225" rx="11.216" ry="10.019" fill="url(#y)"/></g><g filter="url(#z)"><path d="M14.388 19.124c-7.057-.227-6.885-3.35-6.056-5.529l.04-.052c.115-.152.228-.336.228-.294 6.233-.592 18.22-3.857 26.34-3.592.167.006.68.91 1.177 1.784l1.06 1.603c2.063 3.56-2.584 5.845-4.428 5.845-3.208.162-11.304.462-18.361.235z" fill="#A23154" fill-opacity=".72"/></g></g><path d="M30.527 33.01c-.063-.768-4.038-7.808-6.017-11.231h-3.434c-1.271 2.216-4.229 7.65-5.892 11.657-.252 4.373 3.508 4.9 5.419 4.616h4.41c5.973.548 5.597-4.035 5.515-5.027v-.014z" fill="url(#A)"/><path d="M15.046 21.585c-1.67-.388-2.972-3.036-3.37-4.527 0-.063.506-.227 2.535-.378 2.537-.189 7.2 2.316 6.239 3.56-.961 1.245-3.4 1.81-5.404 1.345z" fill="url(#B)"/><path d="M30.75 21.585c1.67-.388 2.972-3.036 3.372-4.527 0-.063-.508-.227-2.537-.378-2.536-.189-7.199 2.316-6.238 3.56.961 1.245 3.4 1.81 5.403 1.345z" fill="url(#C)"/><ellipse cx="29.45" cy="18.865" rx="2.662" ry="2.158" transform="rotate(-15 29.45 18.865)" fill="url(#D)"/><ellipse cx="2.662" cy="2.158" rx="2.662" ry="2.158" transform="scale(-1 1) rotate(-15 56.585 82.46)" fill="url(#E)"/><path d="m16.746 17.208.473 3.26-1.166-1.511-1.118-.63.425-.568 1.386-.551zM29.055 17.208l-.207 3.12.772-1.261 1.26-.788-.439-.52-1.386-.551z" fill="#02032D"/><path d="M21.26 34.496c-.274-.502-.838-1.173-1.712-1.315-.64-.104-.907-.683-.985-1.276.094-.583.126-.838.182-1.135l7.94-.866c.2.522.474 1.321.472 2-.047.332-.262 1.196-.787 1.277-.914.14-1.61.885-2 1.398a.777.777 0 0 1-.466.297.731.731 0 0 0-.59.718v.984c0 .24.062.481.228.654.561.584 1.405.79 1.803.845h-5.498a4.178 4.178 0 0 0 2.061-.819c.241-.183.35-.48.35-.782v-.97a.628.628 0 0 0-.503-.616.752.752 0 0 1-.495-.394z" fill="#01042F"/><path d="M22.187 4.666c-7.98.11-12.666 5.829-13.688 8.804a.561.561 0 0 0-.025.102c-.247 1.658.37 4.3 6.2 4.72 5.89.426 5.654 4.695 5.198 6.27-.366 1.26-1.308 5.246-1.308 7.341h2.876c.2 0 .374.143.517.282.16.154.432.293.86.285.487-.008.812-.188.998-.358.122-.112.272-.209.437-.209h2.907c.111-.614-.34-3.89-1.144-7.34-.803-3.45.615-5.877 5.104-6.302 4.49-.425 6.727-2.615 6.144-4.741-.583-2.127-4.333-9.001-15.076-8.854z" fill="url(#F)"/><g filter="url(#G)"><mask id="I" style="mask-type:alpha" maskUnits="userSpaceOnUse" x="8" y="4" width="30" height="29"><path d="M22.187 4.671c-7.042 0-12.401 5.074-13.688 8.803a.573.573 0 0 0-.025.104c-.247 1.658.37 4.299 6.2 4.72 5.89.425 5.654 4.694 5.198 6.27-.366 1.26-1.024 5.418-1.308 7.34h2.394c.484 0 .951.38 1.416.514.125.036.272.056.444.053.277-.005.501-.065.678-.147.363-.17.74-.42 1.14-.42h2.523c0-.425-.34-3.89-1.144-7.34-.803-3.45.615-5.877 5.104-6.302 4.49-.425 6.727-2.615 6.144-4.741-.583-2.127-4.332-8.854-15.076-8.854z" fill="url(#H)"/></mask><g opacity=".3" mask="url(#I)"><ellipse cx="22.923" cy="13.116" rx="14.619" ry="15.501" fill="url(#J)"/><ellipse cx="22.985" cy="25.859" rx="3.97" ry="4.08" fill="#FFB32E"/></g></g><defs><linearGradient id="b" x1="14.116" y1="10.152" x2="6.949" y2="4.134" gradientUnits="userSpaceOnUse"><stop stop-color="#F72F61"/><stop offset=".689" stop-color="#FC7248"/><stop offset="1" stop-color="#F8BF2E"/></linearGradient><linearGradient id="c" x1="31.636" y1="10.152" x2="38.803" y2="4.134" gradientUnits="userSpaceOnUse"><stop stop-color="#F72F61"/><stop offset=".689" stop-color="#FC7248"/><stop offset="1" stop-color="#F8BF2E"/></linearGradient><linearGradient id="d" x1="22.959" y1="18.247" x2="22.959" y2="53.077" gradientUnits="userSpaceOnUse"><stop stop-color="#5A169E"/><stop offset=".625" stop-color="#A41B85"/><stop offset="1" stop-color="#D01E76"/></linearGradient><linearGradient id="e" x1="22.959" y1="18.247" x2="22.959" y2="53.077" gradientUnits="userSpaceOnUse"><stop stop-color="#5A169E"/><stop offset="1" stop-color="#D01E76"/></linearGradient><linearGradient id="h" x1="22.856" y1="17.523" x2="23.502" y2="36.537" gradientUnits="userSpaceOnUse"><stop offset=".052" stop-color="#561392"/><stop offset="1" stop-color="#731787" stop-opacity=".71"/></linearGradient><linearGradient id="j" x1="22.363" y1="34.615" x2="22.38" y2="52.746" gradientUnits="userSpaceOnUse"><stop stop-color="#731A84"/><stop offset="1" stop-color="#CD2074"/></linearGradient><linearGradient id="l" x1="22.86" y1="38.305" x2="22.85" y2="46.102" gradientUnits="userSpaceOnUse"><stop stop-color="#DC2866"/><stop offset=".885" stop-color="#FFC21F"/></linearGradient><linearGradient id="m" x1="22.85" y1="36.335" x2="22.86" y2="44.732" gradientUnits="userSpaceOnUse"><stop stop-color="#CA1053"/><stop offset="1" stop-color="#FDC01D"/></linearGradient><linearGradient id="q" x1="22.894" y1="15.142" x2="22.975" y2="33.683" gradientUnits="userSpaceOnUse"><stop stop-color="#D52E64"/><stop offset=".578" stop-color="#FE8936"/><stop offset="1" stop-color="#FB8F30"/></linearGradient><linearGradient id="r" x1="23.045" y1="17.001" x2="22.969" y2="33.683" gradientUnits="userSpaceOnUse"><stop stop-color="#F50E5A"/><stop offset="1" stop-color="#FB8F30"/></linearGradient><linearGradient id="u" x1="22.832" y1="16.75" x2="22.827" y2="29.982" gradientUnits="userSpaceOnUse"><stop stop-color="#A72150"/><stop offset="1" stop-color="#DA5B3D" stop-opacity=".6"/></linearGradient><linearGradient id="w" x1="22.825" y1="18.247" x2="22.825" y2="36.867" gradientUnits="userSpaceOnUse"><stop stop-color="#8B1960" stop-opacity=".14"/><stop offset=".396" stop-color="#992857"/><stop offset="1" stop-color="#A7364F"/></linearGradient><linearGradient id="y" x1="22.888" y1="9.206" x2="22.888" y2="29.244" gradientUnits="userSpaceOnUse"><stop stop-color="#FF4161"/><stop offset="1" stop-color="#DD2A5F"/></linearGradient><linearGradient id="A" x1="22.402" y1="26.788" x2="22.867" y2="38.115" gradientUnits="userSpaceOnUse"><stop stop-color="#D74160"/><stop offset=".521" stop-color="#FC6F47"/><stop offset="1" stop-color="#FFC955"/></linearGradient><linearGradient id="B" x1="16.127" y1="16.67" x2="16.127" y2="21.747" gradientUnits="userSpaceOnUse"><stop stop-color="#020427"/><stop offset="1" stop-color="#0B0E3F"/></linearGradient><linearGradient id="C" x1="29.67" y1="16.67" x2="29.67" y2="21.747" gradientUnits="userSpaceOnUse"><stop stop-color="#020427"/><stop offset="1" stop-color="#0B0E3E"/></linearGradient><linearGradient id="D" x1="29.227" y1="18.332" x2="29.156" y2="20.939" gradientUnits="userSpaceOnUse"><stop stop-color="#664B23"/><stop offset=".308" stop-color="#674C24"/><stop offset=".927" stop-color="#9D9339"/></linearGradient><linearGradient id="E" x1="2.439" y1="1.625" x2="2.368" y2="4.232" gradientUnits="userSpaceOnUse"><stop stop-color="#664B23"/><stop offset=".308" stop-color="#674C24"/><stop offset=".927" stop-color="#9D9339"/></linearGradient><linearGradient id="F" x1="22.892" y1="4.666" x2="22.892" y2="32.471" gradientUnits="userSpaceOnUse"><stop offset=".12" stop-color="#FE8B51"/><stop offset="1" stop-color="#FBE74B"/></linearGradient><linearGradient id="H" x1="22.892" y1="4.671" x2="22.892" y2="32.476" gradientUnits="userSpaceOnUse"><stop stop-color="#FFB42F"/><stop offset="1" stop-color="#FFB42F"/></linearGradient><linearGradient id="J" x1="22.923" y1="7.724" x2="22.923" y2="28.616" gradientUnits="userSpaceOnUse"><stop stop-color="#FF691E"/><stop offset="1" stop-color="#FECD16"/></linearGradient><filter id="a" x="190.266" y="1.372" width="87.059" height="51.489" filterUnits="userSpaceOnUse" color-interpolation-filters="sRGB"><feFlood flood-opacity="0" result="BackgroundImageFix"/><feColorMatrix in="SourceAlpha" values="0 0 0 0 0 0 0 0 0 0 0 0 0 0 0 0 0 0 127 0" result="hardAlpha"/><feOffset/><feGaussianBlur stdDeviation="6"/><feComposite in2="hardAlpha" operator="out"/><feColorMatrix values="0 0 0 0 1 0 0 0 0 0.498039 0 0 0 0 0.219608 0 0 0 0.3 0"/><feBlend in2="BackgroundImageFix" result="effect1_dropShadow_2870_3837"/><feColorMatrix in="SourceAlpha" values="0 0 0 0 0 0 0 0 0 0 0 0 0 0 0 0 0 0 127 0" result="hardAlpha"/><feOffset/><feGaussianBlur stdDeviation="2.684"/><feComposite in2="hardAlpha" operator="out"/><feColorMatrix values="0 0 0 0 1 0 0 0 0 0.498039 0 0 0 0 0.219608 0 0 0 0.5 0"/><feBlend in2="effect1_dropShadow_2870_3837" result="effect2_dropShadow_2870_3837"/><feColorMatrix in="SourceAlpha" values="0 0 0 0 0 0 0 0 0 0 0 0 0 0 0 0 0 0 127 0" result="hardAlpha"/><feOffset/><feGaussianBlur stdDeviation="6"/><feComposite in2="hardAlpha" operator="out"/><feColorMatrix values="0 0 0 0 1 0 0 0 0 0.498039 0 0 0 0 0.219608 0 0 0 0.5 0"/><feBlend in2="effect2_dropShadow_2870_3837" result="effect3_dropShadow_2870_3837"/><feColorMatrix in="SourceAlpha" values="0 0 0 0 0 0 0 0 0 0 0 0 0 0 0 0 0 0 127 0" result="hardAlpha"/><feOffset/><feGaussianBlur stdDeviation="3.354"/><feComposite in2="hardAlpha" operator="out"/><feColorMatrix values="0 0 0 0 1 0 0 0 0 0.498039 0 0 0 0 0.219608 0 0 0 0.2 0"/><feBlend in2="effect3_dropShadow_2870_3837" result="effect4_dropShadow_2870_3837"/><feBlend in="SourceGraphic" in2="effect4_dropShadow_2870_3837" result="shape"/><feColorMatrix in="SourceAlpha" values="0 0 0 0 0 0 0 0 0 0 0 0 0 0 0 0 0 0 127 0" result="hardAlpha"/><feOffset/><feGaussianBlur stdDeviation="5.5"/><feComposite in2="hardAlpha" operator="arithmetic" k2="-1" k3="1"/><feColorMatrix values="0 0 0 0 1 0 0 0 0 0.99555 0 0 0 0 0.568333 0 0 0 1 0"/><feBlend in2="shape" result="effect5_innerShadow_2870_3837"/></filter><filter id="g" x="4.74" y="15.854" width="36.254" height="26.166" filterUnits="userSpaceOnUse" color-interpolation-filters="sRGB"><feFlood flood-opacity="0" result="BackgroundImageFix"/><feBlend in="SourceGraphic" in2="BackgroundImageFix" result="shape"/><feGaussianBlur stdDeviation=".11" result="effect1_foregroundBlur_2870_3837"/></filter><filter id="i" x="9.017" y="28.959" width="27.692" height="24.543" filterUnits="userSpaceOnUse" color-interpolation-filters="sRGB"><feFlood flood-opacity="0" result="BackgroundImageFix"/><feBlend in="SourceGraphic" in2="BackgroundImageFix" result="shape"/><feGaussianBlur stdDeviation=".378" result="effect1_foregroundBlur_2870_3837"/></filter><filter id="k" x="15.47" y="36.316" width="14.892" height="10.759" filterUnits="userSpaceOnUse" color-interpolation-filters="sRGB"><feFlood flood-opacity="0" result="BackgroundImageFix"/><feBlend in="SourceGraphic" in2="BackgroundImageFix" result="shape"/><feGaussianBlur stdDeviation=".646" result="effect1_foregroundBlur_2870_3837"/></filter><filter id="o" x="19.946" y="31.352" width="12.792" height="7.782" filterUnits="userSpaceOnUse" color-interpolation-filters="sRGB"><feFlood flood-opacity="0" result="BackgroundImageFix"/><feBlend in="SourceGraphic" in2="BackgroundImageFix" result="shape"/><feGaussianBlur stdDeviation=".221" result="effect1_foregroundBlur_2870_3837"/></filter><filter id="p" x="12.586" y="31.352" width="12.792" height="7.782" filterUnits="userSpaceOnUse" color-interpolation-filters="sRGB"><feFlood flood-opacity="0" result="BackgroundImageFix"/><feBlend in="SourceGraphic" in2="BackgroundImageFix" result="shape"/><feGaussianBlur stdDeviation=".221" result="effect1_foregroundBlur_2870_3837"/></filter><filter id="t" x="10.96" y="16.623" width="23.944" height="37.413" filterUnits="userSpaceOnUse" color-interpolation-filters="sRGB"><feFlood flood-opacity="0" result="BackgroundImageFix"/><feBlend in="SourceGraphic" in2="BackgroundImageFix" result="shape"/><feGaussianBlur stdDeviation=".063" result="effect1_foregroundBlur_2870_3837"/></filter><filter id="v" x="13.878" y="18.09" width="17.944" height="22.511" filterUnits="userSpaceOnUse" color-interpolation-filters="sRGB"><feFlood flood-opacity="0" result="BackgroundImageFix"/><feBlend in="SourceGraphic" in2="BackgroundImageFix" result="shape"/><feGaussianBlur stdDeviation=".079" result="effect1_foregroundBlur_2870_3837"/></filter><filter id="x" x="6.347" y="3.882" width="33.083" height="30.687" filterUnits="userSpaceOnUse" color-interpolation-filters="sRGB"><feFlood flood-opacity="0" result="BackgroundImageFix"/><feBlend in="SourceGraphic" in2="BackgroundImageFix" result="shape"/><feGaussianBlur stdDeviation="2.662" result="effect1_foregroundBlur_2870_3837"/></filter><filter id="z" x="7.398" y="9.106" width="30.833" height="10.635" filterUnits="userSpaceOnUse" color-interpolation-filters="sRGB"><feFlood flood-opacity="0" result="BackgroundImageFix"/><feBlend in="SourceGraphic" in2="BackgroundImageFix" result="shape"/><feGaussianBlur stdDeviation=".268" result="effect1_foregroundBlur_2870_3837"/></filter><filter id="G" x="7.894" y="4.136" width="29.997" height="26.338" filterUnits="userSpaceOnUse" color-interpolation-filters="sRGB"><feFlood flood-opacity="0" result="BackgroundImageFix"/><feBlend in="SourceGraphic" in2="BackgroundImageFix" result="shape"/><feGaussianBlur stdDeviation=".268" result="effect1_foregroundBlur_2870_3837"/></filter></defs></svg>