<svg width="44" height="45" viewBox="0 0 44 45" fill="none" xmlns="http://www.w3.org/2000/svg">
<path fill-rule="evenodd" clip-rule="evenodd" d="M19.271 10C15.1022 10 11.7227 13.3795 11.7227 17.5484V26.5135C11.7227 30.6823 15.1022 34.0619 19.271 34.0619H24.9335C29.1024 34.0619 32.4819 30.6823 32.4819 26.5135V17.5484C32.4819 13.3795 29.1024 10 24.9335 10H19.271ZM15.9688 17.5488V21.3232H18.3278V20.6155H24.6971C22.8099 22.1096 19.0826 25.5223 19.2714 27.2208C19.2714 27.7869 22.8885 27.6139 24.6971 27.4567C24.2253 23.6822 26.3012 19.0586 27.9997 17.5488H15.9688Z" fill="white"/>
<path fill-rule="evenodd" clip-rule="evenodd" d="M11.5227 14.2463C11.0425 15.239 10.7733 16.3528 10.7733 17.5294V26.4945C10.7733 27.5024 10.9708 28.4641 11.3293 29.3431C9.60528 27.045 6.82496 23.02 7.00866 21.9392C7.19269 20.8565 9.81052 16.6993 11.3749 14.3306C11.4121 14.2742 11.4674 14.248 11.5227 14.2463Z" fill="white"/>
<path fill-rule="evenodd" clip-rule="evenodd" d="M32.4773 14.2463C32.9575 15.239 33.2267 16.3528 33.2267 17.5294V26.4945C33.2267 27.5024 33.0292 28.4641 32.6707 29.3431C34.3947 27.045 37.175 23.02 36.9913 21.9392C36.8073 20.8565 34.1895 16.6993 32.6251 14.3306C32.5879 14.2742 32.5326 14.248 32.4773 14.2463Z" fill="white"/>
</svg>
