<svg width="45" height="45" viewBox="0 0 45 45" fill="none" xmlns="http://www.w3.org/2000/svg">
<path fill-rule="evenodd" clip-rule="evenodd" d="M19.8531 10C15.6842 10 12.3047 13.3795 12.3047 17.5484V26.5135C12.3047 30.6823 15.6842 34.0619 19.8531 34.0619H25.5156C29.6844 34.0619 33.0639 30.6823 33.0639 26.5135V17.5484C33.0639 13.3795 29.6844 10 25.5156 10H19.8531ZM16.5508 17.5488V21.3232H18.9098V20.6155H25.2791C23.3919 22.1096 19.6647 25.5223 19.8534 27.2208C19.8534 27.7869 23.4705 27.6139 25.2791 27.4567C24.8073 23.6822 26.8832 19.0586 28.5817 17.5488H16.5508Z" fill="#98ABD0"/>
<path fill-rule="evenodd" clip-rule="evenodd" d="M12.1048 14.2463C11.6245 15.239 11.3553 16.3528 11.3553 17.5294V26.4945C11.3553 27.5024 11.5528 28.4641 11.9113 29.3431C10.1873 27.045 7.40699 23.02 7.59069 21.9392C7.77472 20.8565 10.3925 16.6993 11.957 14.3306C11.9942 14.2742 12.0494 14.248 12.1048 14.2463Z" fill="#98ABD0"/>
<path fill-rule="evenodd" clip-rule="evenodd" d="M33.0593 14.2463C33.5395 15.239 33.8088 16.3528 33.8088 17.5294V26.4945C33.8088 27.5024 33.6112 28.4641 33.2528 29.3431C34.9768 27.045 37.7571 23.02 37.5734 21.9392C37.3893 20.8565 34.7715 16.6993 33.2071 14.3306C33.1699 14.2742 33.1146 14.248 33.0593 14.2463Z" fill="#98ABD0"/>
</svg>
