<svg width="45" height="44" viewBox="0 0 45 44" fill="none" xmlns="http://www.w3.org/2000/svg">
<path fill-rule="evenodd" clip-rule="evenodd" d="M12.8162 19.174L9.78129 23.2892C9.13855 24.1607 9.32402 25.3883 10.1955 26.031L23.9731 36.1918C24.8446 36.8345 26.0722 36.649 26.7149 35.7775L32.171 28.3792L25.6758 33.2025C24.8064 33.8481 23.5783 33.6667 22.9327 32.7973L12.8162 19.174ZM24.7744 31.6145C24.2557 31.5542 23.7621 31.2881 23.4262 30.8358L13.7879 17.8564L13.7873 17.8573L23.4249 30.8356C23.7611 31.2883 24.2552 31.5545 24.7744 31.6145Z" fill="#98ABD0"/>
<path fill-rule="evenodd" clip-rule="evenodd" d="M13.6239 14.3485C12.7545 14.9941 12.5731 16.2223 13.2187 17.0917L23.4249 30.8356C24.0705 31.705 25.2986 31.8864 26.168 31.2408L34.9703 24.7043C35.8397 24.0587 36.0212 22.8305 35.3755 21.9611L25.1694 8.21719C24.5238 7.3478 23.2956 7.16638 22.4262 7.81199L13.6239 14.3485ZM23.7482 15.446C24.8351 14.6359 26.4005 14.888 27.2359 16.0087C27.2635 16.0458 27.2837 16.0791 27.2983 16.104C27.3068 16.1133 27.3163 16.125 27.3263 16.1385C27.4575 16.3144 27.5581 16.5326 27.6345 16.8047C27.666 16.9091 27.6914 17.0211 27.7121 17.1468C27.7121 17.153 27.7128 17.1603 27.7136 17.1667L27.7152 17.1741C27.7167 17.1858 27.7188 17.1974 27.721 17.2092C27.7219 17.2138 27.7227 17.2185 27.7236 17.2232C27.7242 17.2275 27.7249 17.2318 27.7256 17.2362C27.7335 17.2854 27.7425 17.3411 27.746 17.4029C27.9454 19.2094 27.1397 21.8702 27.0152 22.2814C27.0075 22.3069 27.0024 22.3237 27.0003 22.3312C26.9743 22.4247 26.919 22.5032 26.8448 22.5585C26.7717 22.6131 26.6818 22.6442 26.586 22.6431C26.5777 22.6429 26.5595 22.6431 26.5323 22.6432C26.055 22.646 22.7998 22.6647 21.2214 21.7337C21.2123 21.7289 21.2033 21.7231 21.1939 21.7168C20.9259 21.5564 20.715 21.3744 20.5671 21.176C20.56 21.1664 20.5537 21.1571 20.5475 21.1477L20.5475 21.1476C20.5239 21.1223 20.4954 21.0914 20.4674 21.0538C19.6316 19.9326 19.8371 18.3612 20.9245 17.5507C21.4604 17.1513 22.1405 17.0022 22.8003 17.1209C22.8747 16.455 23.2113 15.8462 23.7482 15.446Z" fill="#98ABD0"/>
</svg>
