<svg width="45" height="44" viewBox="0 0 45 44" fill="none" xmlns="http://www.w3.org/2000/svg">
<path fill-rule="evenodd" clip-rule="evenodd" d="M12.5076 19.1742L9.47269 23.2893C8.82996 24.1609 9.01543 25.3884 9.88695 26.0312L23.6645 36.1919C24.536 36.8346 25.7636 36.6491 26.4063 35.7776L31.8624 28.3793L25.3673 33.2026C24.4979 33.8482 23.2697 33.6668 22.6241 32.7974L12.5076 19.1742ZM24.4658 31.6146C23.9471 31.5543 23.4535 31.2882 23.1176 30.8359L13.4793 17.8566L13.4787 17.8574L23.1163 30.8357C23.4525 31.2885 23.9466 31.5546 24.4658 31.6146Z" fill="white"/>
<path fill-rule="evenodd" clip-rule="evenodd" d="M13.3153 14.3486C12.4459 14.9942 12.2645 16.2224 12.9101 17.0918L23.1163 30.8357C23.7619 31.7051 24.99 31.8865 25.8594 31.2409L34.6617 24.7044C35.5311 24.0588 35.7126 22.8306 35.067 21.9612L24.8608 8.21732C24.2152 7.34792 22.987 7.1665 22.1176 7.81211L13.3153 14.3486ZM23.4396 15.4461C24.5265 14.636 26.0919 14.8881 26.9273 16.0088C26.9549 16.0459 26.9751 16.0792 26.9897 16.1042C26.9982 16.1134 27.0077 16.1251 27.0177 16.1386C27.1489 16.3145 27.2495 16.5327 27.3259 16.8048C27.3574 16.9092 27.3828 17.0212 27.4035 17.1469C27.4035 17.1532 27.4042 17.1604 27.405 17.1668L27.4066 17.1742C27.4081 17.186 27.4102 17.1976 27.4124 17.2093C27.4133 17.2139 27.4141 17.2186 27.415 17.2233C27.4156 17.2276 27.4163 17.2319 27.417 17.2363C27.425 17.2855 27.4339 17.3413 27.4375 17.4031C27.6368 19.2095 26.8311 21.8703 26.7066 22.2815C26.6989 22.307 26.6938 22.3238 26.6917 22.3313C26.6657 22.4248 26.6104 22.5034 26.5362 22.5587C26.4631 22.6132 26.3732 22.6443 26.2774 22.6432C26.2691 22.6431 26.2509 22.6432 26.2237 22.6433C25.7464 22.6461 22.4912 22.6648 20.9128 21.7339C20.9037 21.729 20.8947 21.7232 20.8853 21.717C20.6173 21.5565 20.4064 21.3746 20.2585 21.1761C20.2514 21.1666 20.2451 21.1572 20.2389 21.1478L20.2389 21.1478C20.2153 21.1225 20.1868 21.0915 20.1588 21.0539C19.3231 19.9327 19.5285 18.3613 20.6159 17.5508C21.1518 17.1514 21.8319 17.0024 22.4917 17.121C22.5661 16.4551 22.9027 15.8463 23.4396 15.4461Z" fill="white"/>
</svg>
