<svg width="41" height="40" viewBox="0 0 41 40" fill="none" xmlns="http://www.w3.org/2000/svg">
<path opacity="0.01" d="M5.82812 5H35.8281V35H5.82812V5Z" fill="#98ABD0"/>
<path fill-rule="evenodd" clip-rule="evenodd" d="M12.2183 7.17095C12.4731 7.05822 12.7487 6.99999 13.0274 7H28.6294C28.9078 7.00041 29.1831 7.05895 29.4376 7.17186C29.692 7.28478 29.9202 7.44958 30.1073 7.65573C30.2944 7.86188 30.4365 8.10482 30.5243 8.36902C30.6121 8.63322 30.6438 8.91284 30.6174 9.19L29.5864 20.036C29.4203 21.7782 28.7386 23.4314 27.6284 24.7842C26.5181 26.1371 25.0297 27.1282 23.3534 27.631C23.0474 27.723 22.8274 27.996 22.8274 28.315C22.8274 28.4967 22.8996 28.6709 23.028 28.7994C23.1565 28.9278 23.3307 29 23.5124 29H27.8274C28.0901 29 28.3502 29.0517 28.5928 29.1522C28.8355 29.2527 29.056 29.4 29.2418 29.5857C29.4275 29.7714 29.5748 29.9919 29.6754 30.2346C29.7759 30.4772 29.8276 30.7373 29.8276 31C29.8276 31.2627 29.7759 31.5228 29.6754 31.7654C29.5748 32.0081 29.4275 32.2286 29.2418 32.4143C29.056 32.6 28.8355 32.7473 28.5928 32.8478C28.3502 32.9483 28.0901 33 27.8274 33H13.8274C13.5647 33 13.3046 32.9483 13.0619 32.8478C12.8193 32.7473 12.5988 32.6 12.413 32.4143C12.2273 32.2286 12.0799 32.0081 11.9794 31.7654C11.8789 31.5228 11.8271 31.2627 11.8271 31C11.8271 30.7373 11.8789 30.4772 11.9794 30.2346C12.0799 29.9919 12.2273 29.7714 12.413 29.5857C12.5988 29.4 12.8193 29.2527 13.0619 29.1522C13.3046 29.0517 13.5647 29 13.8274 29H18.1424C18.3241 29 18.4983 28.9278 18.6268 28.7994C18.7552 28.6709 18.8274 28.4967 18.8274 28.315C18.8249 28.1596 18.7724 28.0091 18.6776 27.8859C18.5829 27.7627 18.4509 27.6733 18.3014 27.631C16.6252 27.1281 15.1371 26.1369 14.027 24.784C12.9169 23.4312 12.2354 21.7781 12.0694 20.036L11.0364 9.19C11.0099 8.91259 11.0417 8.63271 11.1297 8.36831C11.2177 8.10391 11.36 7.86081 11.5475 7.65462C11.735 7.44843 11.9634 7.28368 12.2183 7.17095ZM20.5616 10.7388C20.4818 10.7891 20.4178 10.8609 20.3771 10.946L19.2171 13.377C19.1811 13.4523 19.1268 13.5173 19.0592 13.5662C18.9916 13.6151 18.9129 13.6463 18.8301 13.657L16.1601 14.009C16.0667 14.0215 15.9786 14.0602 15.9062 14.1207C15.8338 14.1811 15.78 14.2607 15.7509 14.3504C15.7218 14.4402 15.7187 14.5363 15.742 14.6277C15.7652 14.7191 15.8138 14.802 15.8821 14.867L17.8351 16.722C17.8954 16.7793 17.9404 16.8508 17.966 16.9299C17.9917 17.009 17.9972 17.0932 17.9821 17.175L17.4921 19.824C17.4751 19.9168 17.4846 20.0125 17.5196 20.1001C17.5547 20.1877 17.6138 20.2636 17.6901 20.319C17.7665 20.3744 17.8569 20.4071 17.9511 20.4133C18.0452 20.4195 18.1392 20.3989 18.2221 20.354L20.5901 19.07C20.6632 19.0304 20.745 19.0097 20.8281 19.0097C20.9112 19.0097 20.993 19.0304 21.0661 19.07L23.4341 20.354C23.5171 20.3989 23.611 20.4195 23.7052 20.4133C23.7993 20.4071 23.8898 20.3744 23.9661 20.319C24.0425 20.2636 24.1016 20.1877 24.1366 20.1001C24.1716 20.0125 24.1812 19.9168 24.1641 19.824L23.6741 17.176C23.6588 17.0941 23.6643 17.0096 23.69 16.9303C23.7156 16.851 23.7607 16.7794 23.8211 16.722L25.7751 14.867C25.8435 14.8019 25.8921 14.7188 25.9152 14.6272C25.9383 14.5357 25.9351 14.4394 25.9058 14.3497C25.8765 14.2599 25.8224 14.1803 25.7497 14.12C25.677 14.0597 25.5888 14.0212 25.4951 14.009L22.8251 13.657C22.7424 13.6461 22.6638 13.6146 22.5964 13.5655C22.529 13.5165 22.4749 13.4513 22.4391 13.376L21.2791 10.946C21.2384 10.8609 21.1744 10.7891 21.0946 10.7388C21.0148 10.6885 20.9224 10.6619 20.8281 10.6619C20.7338 10.6619 20.6414 10.6885 20.5616 10.7388Z" fill="#98ABD0"/>
<path fill-rule="evenodd" clip-rule="evenodd" d="M7.41391 10.5858C7.03884 10.9609 6.82812 11.4696 6.82812 12V14.292C6.82826 15.4062 7.13864 16.4984 7.72449 17.4461C8.31034 18.3939 9.14852 19.1598 10.1451 19.658L20.3811 24.776C20.5199 24.8454 20.673 24.8815 20.8281 24.8815C20.9833 24.8815 21.1363 24.8454 21.2751 24.776L31.5111 19.658C32.5077 19.1598 33.3459 18.3939 33.9318 17.4461C34.5176 16.4984 34.828 15.4062 34.8281 14.292V12C34.8281 11.4696 34.6174 10.9609 34.2423 10.5858C33.8673 10.2107 33.3586 10 32.8281 10H8.82812C8.29769 10 7.78898 10.2107 7.41391 10.5858ZM20.5616 10.7388C20.4818 10.7891 20.4178 10.8609 20.3771 10.946L19.2171 13.377C19.1811 13.4523 19.1268 13.5173 19.0592 13.5662C18.9916 13.6151 18.9129 13.6463 18.8301 13.657L16.1601 14.009C16.0667 14.0215 15.9786 14.0602 15.9062 14.1207C15.8338 14.1811 15.78 14.2607 15.7509 14.3504C15.7218 14.4402 15.7187 14.5363 15.742 14.6277C15.7652 14.7191 15.8138 14.802 15.8821 14.867L17.8351 16.722C17.8954 16.7793 17.9404 16.8508 17.966 16.9299C17.9917 17.009 17.9972 17.0932 17.9821 17.175L17.4921 19.824C17.4751 19.9168 17.4846 20.0125 17.5196 20.1001C17.5547 20.1877 17.6138 20.2636 17.6901 20.319C17.7665 20.3744 17.8569 20.4071 17.9511 20.4133C18.0452 20.4195 18.1392 20.3989 18.2221 20.354L20.5901 19.07C20.6632 19.0304 20.745 19.0097 20.8281 19.0097C20.9112 19.0097 20.993 19.0304 21.0661 19.07L23.4341 20.354C23.5171 20.3989 23.611 20.4195 23.7052 20.4133C23.7993 20.4071 23.8898 20.3744 23.9661 20.319C24.0425 20.2636 24.1016 20.1877 24.1366 20.1001C24.1716 20.0125 24.1812 19.9168 24.1641 19.824L23.6741 17.176C23.6588 17.0941 23.6643 17.0096 23.69 16.9303C23.7156 16.851 23.7607 16.7794 23.8211 16.722L25.7751 14.867C25.8435 14.8019 25.8921 14.7188 25.9152 14.6272C25.9383 14.5357 25.9351 14.4394 25.9058 14.3497C25.8765 14.2599 25.8224 14.1803 25.7497 14.12C25.677 14.0597 25.5888 14.0212 25.4951 14.009L22.8251 13.657C22.7424 13.6461 22.6638 13.6146 22.5964 13.5655C22.529 13.5165 22.4749 13.4513 22.4391 13.376L21.2791 10.946C21.2384 10.8609 21.1744 10.7891 21.0946 10.7388C21.0148 10.6885 20.9224 10.6619 20.8281 10.6619C20.7338 10.6619 20.6414 10.6885 20.5616 10.7388Z" fill="#98ABD0"/>
</svg>
