<?xml version="1.0" standalone="no"?><!DOCTYPE svg PUBLIC "-//W3C//DTD SVG 1.1//EN" "http://www.w3.org/Graphics/SVG/1.1/DTD/svg11.dtd"><svg t="1680449094542" class="icon" viewBox="0 0 1024 1024" version="1.1" xmlns="http://www.w3.org/2000/svg" p-id="4616" xmlns:xlink="http://www.w3.org/1999/xlink" width="200" height="200"><path d="M926.293333 865.92l-120.746666-120.746667a406.4 406.4 0 1 0-60.373334 60.373334l120.746667 120.746666a42.666667 42.666667 0 0 0 60.373333-60.373333zM490.666667 810.666667a320 320 0 1 1 320-320 320 320 0 0 1-320 320z" p-id="4617" fill="#98AAD1"></path><path d="M256 533.333333a42.666667 42.666667 0 0 1-42.666667-42.666666 277.333333 277.333333 0 0 1 277.333334-277.333334 42.666667 42.666667 0 0 1 0 85.333334 192 192 0 0 0-192 192 42.666667 42.666667 0 0 1-42.666667 42.666666z" p-id="4618" fill="#98AAD1"></path></svg>